<svg version="1.1" id="Layer_1" xmlns="http://www.w3.org/2000/svg" xmlns:xlink="http://www.w3.org/1999/xlink" x="0px" y="0px"
	 width="100%" viewBox="0 0 512 512" enable-background="new 0 0 512 512" xml:space="preserve">
<path fill="#FFFFFF" opacity="1.000000" stroke="none" 
	d="
M513.000000,307.000000 
	C513.000000,375.635681 513.000000,444.271362 513.000000,512.907104 
	C512.864380,512.938049 512.728821,512.996216 512.593201,512.996216 
	C342.170166,513.000000 171.747101,513.000000 1.000000,513.000000 
	C1.000000,431.978271 1.000000,350.956116 1.385325,269.603058 
	C1.851426,270.428223 1.766636,271.624695 2.037678,272.734283 
	C6.470284,290.880035 15.227396,306.245911 30.272779,317.845642 
	C48.743320,332.086151 69.656776,336.866425 92.154442,332.731262 
	C111.198189,329.230927 127.023811,319.378479 138.865494,303.648224 
	C153.390930,284.352936 157.345001,262.467743 152.499527,239.469086 
	C148.704056,221.454071 138.784103,206.396759 123.708496,195.228378 
	C111.359253,186.079742 97.403564,181.098190 82.140434,180.058731 
	C70.807594,179.286911 59.786839,181.174042 49.187897,185.360809 
	C31.928026,192.178726 18.500212,203.551178 10.160477,220.110779 
	C6.209803,227.955353 3.999033,236.676163 0.999998,245.000000 
	C1.000000,163.700226 1.000000,82.400444 1.000000,1.050335 
	C171.562683,1.050335 342.125397,1.050335 513.000000,1.050335 
	C513.000000,99.355125 513.000000,197.710587 512.652893,296.440552 
	C510.563507,294.548889 509.248810,291.635956 506.993866,290.145203 
	C501.547882,286.544830 490.981232,289.865479 488.133820,295.583374 
	C484.449554,302.981628 486.983276,313.287933 493.686676,315.994293 
	C497.161469,317.397125 501.202789,317.833130 505.002106,317.898712 
	C511.563690,318.012024 512.441711,316.542847 510.516693,310.009369 
	C505.778503,309.780396 500.043030,313.306641 496.127197,307.000000 
	C502.021698,307.000000 507.510864,307.000000 513.000000,307.000000 
M476.257660,217.345383 
	C476.144379,217.206070 476.031097,217.066757 475.994141,216.038376 
	C475.994141,214.445114 475.994141,212.851868 475.994141,211.220795 
	C470.421417,211.220795 465.320923,211.220795 460.476349,211.220795 
	C456.972595,230.516296 453.515747,249.553513 450.019440,268.807983 
	C455.983093,268.807983 461.762787,268.807983 467.701050,268.807983 
	C469.473511,259.779602 470.727264,250.653107 473.192719,241.866608 
	C474.662109,236.630020 477.552338,231.572327 480.797882,227.166443 
	C482.026978,225.497894 486.133759,225.277756 488.753265,225.646088 
	C489.754883,225.786926 491.000092,229.470428 490.861450,231.450378 
	C490.454407,237.263260 489.542694,243.053894 488.577515,248.811157 
	C487.468262,255.427780 486.090302,261.999329 484.786102,268.814789 
	C491.133545,268.814789 496.904846,268.814789 502.613983,268.814789 
	C503.100220,266.261963 503.571747,263.904205 503.996185,261.537994 
	C505.992218,250.411072 508.250824,239.321884 509.876404,228.140808 
	C511.191467,219.095428 505.799377,209.914688 495.187439,209.888123 
	C487.638916,209.869217 481.805969,212.903442 476.257660,217.345383 
M198.040604,203.691208 
	C199.417374,197.608414 200.794144,191.525620 202.230728,185.178528 
	C195.973618,185.178528 190.190399,185.178528 184.441177,185.178528 
	C183.942413,186.631210 183.316437,187.948380 183.040176,189.335190 
	C179.007706,209.577499 174.828491,229.794098 171.153152,250.101685 
	C170.161743,255.579544 171.076508,261.256622 175.823776,265.319611 
	C183.515564,271.902679 192.563171,270.829437 201.327728,269.074188 
	C221.874832,264.959167 231.601730,245.357117 229.831787,226.423386 
	C228.958603,217.082657 223.106873,209.434219 212.559570,210.192505 
	C206.927322,210.597443 201.437256,212.979889 196.012772,214.435028 
	C196.547409,211.781128 197.275101,208.168900 198.040604,203.691208 
M378.655090,270.000000 
	C385.825531,270.703583 392.689087,269.376160 398.740479,265.606140 
	C408.575928,259.478638 413.612579,249.983383 414.860901,238.767502 
	C415.649506,231.682343 415.109039,224.669098 410.099518,218.476135 
	C399.051788,204.818512 375.013763,208.963196 364.761871,221.454819 
	C359.839783,227.452240 357.408142,234.280090 356.251923,241.594177 
	C354.053467,255.501022 361.817200,269.447113 378.655090,270.000000 
M306.002625,215.651093 
	C306.372406,214.264145 306.742188,212.877197 307.247711,210.981171 
	C302.964935,210.981171 299.035706,210.981171 294.883148,210.981171 
	C296.001160,205.400711 297.026001,200.285294 298.068390,195.082413 
	C294.657959,195.805893 291.860596,196.534332 289.018707,196.976990 
	C280.336517,198.329361 279.355347,199.233063 278.008057,207.764450 
	C277.840576,208.825104 277.752747,209.898346 277.610016,211.119690 
	C274.957275,211.119690 272.654816,211.119690 270.005920,211.119690 
	C269.265564,215.763214 268.548340,220.261673 267.781281,225.072754 
	C270.587128,225.072754 272.556854,225.072754 274.637451,225.072754 
	C272.740112,235.554062 270.819550,245.808243 269.049652,256.088348 
	C268.138580,261.380127 272.119141,267.876221 277.712921,269.013672 
	C282.452209,269.977356 287.460602,269.775452 292.345856,269.721466 
	C293.248077,269.711487 294.647705,268.077881 294.928833,266.968384 
	C295.895416,263.153870 296.467590,259.239410 297.257690,255.000214 
	C295.716003,255.000214 294.891968,254.897583 294.101501,255.017075 
	C289.418793,255.724899 287.141815,254.035782 287.996796,249.068146 
	C289.379608,241.033356 290.741577,232.994980 292.130524,224.851486 
	C296.749695,224.851486 300.705261,224.851486 304.576477,224.851486 
	C305.078583,221.918716 305.539276,219.228012 306.002625,215.651093 
M306.999847,250.533997 
	C307.689240,259.805298 313.875244,266.796997 320.893707,268.763641 
	C328.607117,270.925049 336.573120,270.751129 344.517426,268.329468 
	C347.837677,267.317352 348.313690,265.718201 347.972992,263.067627 
	C347.584869,260.048584 347.001282,257.054688 346.507294,254.077621 
	C344.166443,254.420837 341.719025,254.281525 339.731964,255.170807 
	C335.052795,257.264893 331.130585,255.293365 328.260193,252.445480 
	C324.974396,249.185501 324.005859,244.580368 325.635712,239.824020 
	C327.432831,234.579575 329.546173,229.543518 334.784027,226.771606 
	C340.218170,223.895859 345.908478,223.509842 351.847198,225.770630 
	C353.363312,221.300598 354.795105,217.079086 356.409088,212.320404 
	C353.565979,211.492279 351.035736,210.240524 348.439178,210.083023 
	C332.294830,209.103775 318.931671,214.139038 310.675842,228.906113 
	C307.100098,235.301971 305.785065,242.317398 306.999847,250.533997 
M437.960236,265.256104 
	C437.978943,264.258972 437.852600,263.234009 438.037903,262.268860 
	C441.299896,245.276382 444.599915,228.291199 447.927673,211.119003 
	C441.908813,211.119003 436.280029,211.119003 430.072479,211.119003 
	C426.399597,230.241226 422.714600,249.426376 418.955200,268.999023 
	C424.415344,268.999023 429.556458,269.154724 434.672211,268.863983 
	C435.661774,268.807770 436.552216,267.006958 437.960236,265.256104 
M237.002884,250.603897 
	C235.928131,256.588318 234.853378,262.572723 233.732483,268.814056 
	C240.128464,268.814056 245.898544,268.814056 251.572296,268.814056 
	C255.195724,249.534241 258.781982,230.452301 262.437714,211.000641 
	C256.751495,211.000641 252.094635,210.863998 247.456207,211.095810 
	C246.283447,211.154419 244.397522,212.192764 244.162689,213.117111 
	C243.169724,217.025360 242.754639,221.075745 241.983597,225.046066 
	C240.384323,233.281021 238.692978,241.498093 237.002884,250.603897 
M283.165344,289.000031 
	C281.223083,289.000031 279.280823,289.000031 277.000000,289.000031 
	C277.000000,299.704071 276.953857,309.982574 277.013458,320.260468 
	C277.068878,329.812988 275.538544,329.038422 285.777130,328.955170 
	C286.060822,328.952820 286.342682,328.725555 287.000000,328.441010 
	C287.000000,326.659515 287.000000,324.698273 287.000000,322.737030 
	C287.000000,320.632233 287.000000,318.527466 287.000000,316.295074 
	C295.603241,320.136353 300.888702,317.361267 303.564697,312.595428 
	C305.480621,309.183228 305.789246,304.587036 305.890015,300.496307 
	C306.095428,292.155273 298.040222,286.219116 290.457214,289.461487 
	C287.641235,290.665588 286.125458,289.946899 283.165344,289.000031 
M385.395386,277.000305 
	C383.314423,277.000305 381.233490,277.000305 379.005188,277.000305 
	C379.005188,281.930969 379.005188,286.232056 379.005188,290.426697 
	C374.219177,288.389313 369.335449,287.709442 365.036255,290.635254 
	C359.659027,294.294678 357.984680,300.103729 359.186523,306.230530 
	C361.343750,317.227783 367.158783,320.032990 377.736816,315.808380 
	C378.174072,315.633728 378.762573,315.733459 379.258057,315.826050 
	C382.013916,316.341064 384.762787,316.893402 387.996918,317.527679 
	C387.996918,304.028564 388.020203,291.436523 387.926941,278.845398 
	C387.922333,278.227905 386.898834,277.617920 385.395386,277.000305 
M432.000000,301.743958 
	C431.756317,290.614777 426.393005,286.304077 414.778076,290.602722 
	C414.778076,286.038971 414.778076,281.608093 414.778076,277.295837 
	C411.336853,277.295837 408.264435,277.295837 405.293640,277.295837 
	C405.293640,290.669708 405.293640,303.745789 405.293640,316.700562 
	C408.669373,316.700562 411.745056,316.700562 415.000092,316.700562 
	C415.000092,311.255737 414.787811,306.093536 415.140503,300.970215 
	C415.235748,299.586792 417.043945,298.321289 418.065918,297.001678 
	C419.377594,298.034760 421.643829,298.915680 421.836945,300.127075 
	C422.706787,305.583496 422.988770,311.133636 423.494690,316.784363 
	C426.174377,316.784363 428.910889,316.784363 432.000000,316.784363 
	C432.000000,311.948029 432.000000,307.318420 432.000000,301.743958 
M441.776489,291.021545 
	C437.575653,295.062012 435.323761,300.161713 436.477570,305.754395 
	C438.464050,315.382904 446.193146,319.911743 455.961395,317.974243 
	C460.265472,317.120544 463.760498,315.726013 460.327942,309.991302 
	C455.779297,309.882355 450.074036,313.233582 445.943390,306.806152 
	C451.927155,306.806152 457.345520,306.806152 462.744629,306.806152 
	C463.628052,300.226135 463.428894,293.843201 457.452881,290.371338 
	C452.902313,287.727600 447.435242,287.869873 441.776489,291.021545 
M176.109329,299.362427 
	C175.204102,299.650513 174.273590,299.877136 173.397903,300.237091 
	C169.175385,301.972748 166.936646,306.199951 167.882431,310.577301 
	C169.092911,316.179779 171.908005,318.443817 177.485001,317.971863 
	C182.603333,317.538757 187.701828,316.871155 192.999954,316.285767 
	C192.999954,310.894135 193.092133,305.415771 192.974457,299.941895 
	C192.852798,294.281342 189.956329,289.677948 185.186600,289.250153 
	C179.832962,288.770050 174.045273,287.551666 169.240097,291.630920 
	C170.615753,296.526764 170.608643,296.420471 176.106293,296.052795 
	C178.339432,295.903473 180.611023,296.329376 182.865128,296.493530 
	C182.863617,297.132690 182.862122,297.771820 182.860611,298.410950 
	C180.863541,298.615906 178.866470,298.820862 176.109329,299.362427 
M353.315125,306.999786 
	C354.190643,306.729034 355.619629,306.697357 355.855927,306.150421 
	C358.182709,300.764893 354.234100,291.465698 348.897675,289.402954 
	C343.071106,287.150757 333.863861,290.298096 331.166046,295.464203 
	C328.101837,301.331909 329.934631,312.827881 335.203308,315.421906 
	C338.940491,317.261871 343.592773,317.741302 347.867157,317.878815 
	C354.807190,318.102112 355.718140,316.462463 353.224426,309.916382 
	C348.477448,310.173676 343.108521,312.900665 338.950073,307.000000 
	C343.786041,307.000000 348.069641,307.000000 353.315125,306.999786 
M272.197479,296.731171 
	C270.145813,294.341583 268.537170,291.135529 265.950470,289.731995 
	C260.530151,286.790863 252.517624,289.582733 248.566193,294.943512 
	C246.075439,298.322601 245.866394,309.159729 249.065842,312.688354 
	C253.398849,317.467133 258.750092,318.393738 264.656128,317.984375 
	C271.516174,317.508881 271.902954,316.933838 270.396851,309.957367 
	C265.679626,309.990540 260.160065,313.082458 255.989685,306.670898 
	C262.133789,306.670898 267.545227,306.670898 272.821228,306.670898 
	C272.821228,303.292511 272.821228,300.300690 272.197479,296.731171 
M308.000000,292.508240 
	C308.853271,294.006866 309.706543,295.505463 310.559814,297.004089 
	C311.040131,296.843079 311.520447,296.682068 312.000763,296.521057 
	C312.000763,300.994629 311.787079,305.481079 312.055176,309.938538 
	C312.386200,315.442047 317.054291,318.550537 323.607574,317.999786 
	C329.562683,317.499329 325.972412,313.068176 327.107239,310.495453 
	C320.419647,309.286438 319.385101,306.363678 321.637207,296.117981 
	C323.413940,295.994965 325.165192,295.873749 326.682861,295.768707 
	C326.682861,293.259033 326.682861,291.179230 326.682861,289.157013 
	C324.603912,289.005707 322.845673,288.877747 320.949036,288.739746 
	C320.949036,286.070709 320.949036,283.757202 320.949036,281.510223 
	C319.366699,281.723145 317.922516,281.805939 316.536438,282.134094 
	C315.023651,282.492279 313.564697,283.077728 311.911682,283.620087 
	C311.911682,285.305328 311.911682,286.930847 311.911682,288.556335 
	C311.615479,288.376190 311.319305,288.196045 311.023102,288.015869 
	C310.015472,289.209869 309.007843,290.403839 308.000000,292.508240 
M244.418793,313.936066 
	C244.104477,312.605957 243.790146,311.275818 243.498596,310.042053 
	C233.470932,309.925720 231.332962,308.381165 232.001343,302.015198 
	C232.547928,296.809082 235.463684,295.499023 243.489868,296.853241 
	C244.811035,288.989166 244.811035,288.989258 236.873718,288.999878 
	C236.044022,289.000977 235.199509,288.898743 234.387070,289.017242 
	C229.550629,289.722595 225.154251,291.539948 223.334641,296.355804 
	C221.146545,302.146790 220.727386,308.168182 224.983017,313.391846 
	C229.103195,318.449249 235.009537,318.344269 240.718781,317.834778 
	C242.214371,317.701324 243.547791,315.750427 244.418793,313.936066 
M209.035599,317.983063 
	C212.690613,317.687225 216.345612,317.391418 219.550339,317.132019 
	C221.240585,310.882416 218.663208,309.443665 213.757568,309.954956 
	C210.412109,310.303650 207.818420,308.448059 207.307587,305.335388 
	C206.963821,303.240845 207.590210,299.885132 209.040176,298.842468 
	C211.556778,297.032776 215.047226,296.577393 218.129303,295.554077 
	C218.352661,295.974243 218.576004,296.394379 218.799347,296.814545 
	C219.279190,294.362671 219.759018,291.910828 220.244583,289.429626 
	C204.759827,287.262054 199.785904,291.885498 197.180176,300.738556 
	C195.154907,307.619446 200.067383,314.788574 209.035599,317.983063 
M467.000000,293.641113 
	C467.000000,301.376282 467.000000,309.111450 467.000000,316.705994 
	C470.676056,316.705994 473.744202,316.705994 477.000000,316.705994 
	C477.000000,313.279388 477.000000,310.144958 477.000000,307.010559 
	C477.000031,298.763550 477.000031,298.763550 484.771606,297.443268 
	C484.771606,294.678772 484.771606,291.914276 484.771606,288.238800 
	C481.539612,289.297913 478.785339,290.200470 477.389648,290.657837 
	C473.530548,289.816620 470.568115,289.170868 467.000000,288.393066 
	C467.000000,290.436951 467.000000,291.559021 467.000000,293.641113 
M253.853027,204.998779 
	C255.015091,204.997589 256.221588,205.200851 257.331451,204.959579 
	C261.957092,203.954010 265.209381,201.115021 265.874817,196.458466 
	C266.429077,192.579666 264.869812,188.837265 261.113373,187.122406 
	C255.962326,184.770935 249.979599,187.551636 247.668839,192.844101 
	C245.463531,197.895096 247.267227,201.982788 253.853027,204.998779 
M446.077820,203.992996 
	C447.310394,202.916977 448.682404,201.962753 449.748962,200.741745 
	C452.751251,197.304626 450.891327,189.045654 446.821411,187.358963 
	C442.895233,185.731842 436.703766,186.874527 434.629700,189.935059 
	C432.063538,193.721619 431.056458,197.967941 434.067719,201.893448 
	C436.965027,205.670471 441.027283,205.925812 446.077820,203.992996 
z"/>
<path fill="#000000" opacity="1.000000" stroke="none" 
	d="
M0.999998,245.468628 
	C3.999033,236.676163 6.209803,227.955353 10.160477,220.110779 
	C18.500212,203.551178 31.928026,192.178726 49.187897,185.360809 
	C59.786839,181.174042 70.807594,179.286911 82.140434,180.058731 
	C97.403564,181.098190 111.359253,186.079742 123.708496,195.228378 
	C138.784103,206.396759 148.704056,221.454071 152.499527,239.469086 
	C157.345001,262.467743 153.390930,284.352936 138.865494,303.648224 
	C127.023811,319.378479 111.198189,329.230927 92.154442,332.731262 
	C69.656776,336.866425 48.743320,332.086151 30.272779,317.845642 
	C15.227396,306.245911 6.470284,290.880035 2.037678,272.734283 
	C1.766636,271.624695 1.851426,270.428223 1.385325,269.136078 
	C1.000000,261.312408 1.000000,253.624832 0.999998,245.468628 
M50.997562,269.338684 
	C50.875053,276.088287 46.363556,276.847168 41.333336,275.974213 
	C40.948235,278.957489 40.645115,281.305695 40.321640,283.811584 
	C45.098206,284.544464 49.925392,285.132996 54.663303,286.141052 
	C55.605930,286.341644 56.918701,288.212067 56.829979,289.202240 
	C56.577873,292.015778 55.689384,294.772308 55.050259,297.556305 
	C65.311821,298.970947 65.311821,298.970947 67.682800,288.712036 
	C70.119881,289.236084 72.563896,289.761627 75.131180,290.313690 
	C74.781372,293.964539 73.138374,298.087341 74.535919,300.151031 
	C75.963531,302.259155 80.375465,302.346283 83.673767,303.378479 
	C84.192101,299.781250 84.300079,296.800751 85.160858,294.056366 
	C85.555428,292.798370 87.280212,291.634583 88.663429,291.075562 
	C91.749046,289.828583 95.294678,289.507233 98.130211,287.891479 
	C109.377892,281.482269 108.352211,265.570374 98.925880,261.367798 
	C97.276436,260.632446 95.850327,259.396179 94.259758,258.350952 
	C95.111351,257.904053 95.797546,257.275055 96.543381,257.193878 
	C104.573769,256.319763 108.860153,250.877365 109.701622,243.866608 
	C110.476151,237.413467 106.325317,232.456345 100.557564,229.025833 
	C99.204102,228.220840 98.160774,225.740585 98.182396,224.046478 
	C98.215256,221.472626 99.303513,218.912262 99.951530,216.313873 
	C89.236023,215.340530 89.236023,215.340530 87.505203,225.248306 
	C85.051132,224.771576 82.607147,224.296814 79.816628,223.754730 
	C80.222366,220.226608 81.950745,216.120636 80.587494,214.055405 
	C79.153282,211.882645 74.762001,211.661819 71.434723,210.509079 
	C70.887970,213.830719 70.443611,216.533279 69.998138,219.235657 
	C69.652229,221.333969 69.216194,222.178848 66.467171,221.363388 
	C61.914242,220.012772 57.055916,219.691681 52.258316,218.925995 
	C51.750454,221.910049 51.332150,224.367905 50.937225,226.688370 
	C54.587189,227.659821 58.633919,227.842407 57.864506,232.355179 
	C55.805710,244.430450 53.317600,256.432526 50.997562,269.338684 
z"/>
<path fill="#000000" opacity="1.000000" stroke="none" 
	d="
M513.000000,306.545898 
	C507.510864,307.000000 502.021698,307.000000 496.127197,307.000000 
	C500.043030,313.306641 505.778503,309.780396 510.516693,310.009369 
	C512.441711,316.542847 511.563690,318.012024 505.002106,317.898712 
	C501.202789,317.833130 497.161469,317.397125 493.686676,315.994293 
	C486.983276,313.287933 484.449554,302.981628 488.133820,295.583374 
	C490.981232,289.865479 501.547882,286.544830 506.993866,290.145203 
	C509.248810,291.635956 510.563507,294.548889 512.652893,296.907532 
	C513.000000,300.030609 513.000000,303.061188 513.000000,306.545898 
M496.240021,298.236725 
	C498.676025,299.027435 501.112030,299.818146 504.245636,300.835266 
	C502.587646,294.432404 500.696655,293.975311 496.240021,298.236725 
z"/>
<path fill="#000000" opacity="1.000000" stroke="none" 
	d="
M198.021698,204.123932 
	C197.275101,208.168900 196.547409,211.781128 196.012772,214.435028 
	C201.437256,212.979889 206.927322,210.597443 212.559570,210.192505 
	C223.106873,209.434219 228.958603,217.082657 229.831787,226.423386 
	C231.601730,245.357117 221.874832,264.959167 201.327728,269.074188 
	C192.563171,270.829437 183.515564,271.902679 175.823776,265.319611 
	C171.076508,261.256622 170.161743,255.579544 171.153152,250.101685 
	C174.828491,229.794098 179.007706,209.577499 183.040176,189.335190 
	C183.316437,187.948380 183.942413,186.631210 184.441177,185.178528 
	C190.190399,185.178528 195.973618,185.178528 202.230728,185.178528 
	C200.794144,191.525620 199.417374,197.608414 198.021698,204.123932 
M190.995682,241.600861 
	C190.667694,245.331512 189.744186,249.151154 190.282303,252.752380 
	C190.523483,254.366318 194.214340,257.055023 195.435562,256.633911 
	C199.091461,255.373276 203.578476,253.593781 205.398468,250.595062 
	C208.456757,245.556107 210.415192,239.539001 211.395172,233.691849 
	C211.827866,231.110245 209.431641,226.924164 207.062180,225.291550 
	C204.150833,223.285538 199.985321,224.672363 197.908340,227.769012 
	C195.194626,231.814987 193.267059,236.388275 190.995682,241.600861 
z"/>
<path fill="#000000" opacity="1.000000" stroke="none" 
	d="
M378.188690,270.000000 
	C361.817200,269.447113 354.053467,255.501022 356.251923,241.594177 
	C357.408142,234.280090 359.839783,227.452240 364.761871,221.454819 
	C375.013763,208.963196 399.051788,204.818512 410.099518,218.476135 
	C415.109039,224.669098 415.649506,231.682343 414.860901,238.767502 
	C413.612579,249.983383 408.575928,259.478638 398.740479,265.606140 
	C392.689087,269.376160 385.825531,270.703583 378.188690,270.000000 
M396.952576,235.403656 
	C396.715240,230.650177 395.576080,225.917404 390.804321,224.186844 
	C386.607880,222.664948 382.661072,224.789871 380.102264,228.475815 
	C375.784058,234.696228 373.358185,241.622681 375.171356,249.166702 
	C375.776337,251.683716 377.938080,254.829620 380.164459,255.698135 
	C382.901215,256.765747 386.235718,256.405640 389.170746,253.604843 
	C394.337952,248.673904 395.696747,242.607666 396.952576,235.403656 
z"/>
<path fill="#000000" opacity="1.000000" stroke="none" 
	d="
M476.554413,217.794952 
	C481.805969,212.903442 487.638916,209.869217 495.187439,209.888123 
	C505.799377,209.914688 511.191467,219.095428 509.876404,228.140808 
	C508.250824,239.321884 505.992218,250.411072 503.996185,261.537994 
	C503.571747,263.904205 503.100220,266.261963 502.613983,268.814789 
	C496.904846,268.814789 491.133545,268.814789 484.786102,268.814789 
	C486.090302,261.999329 487.468262,255.427780 488.577515,248.811157 
	C489.542694,243.053894 490.454407,237.263260 490.861450,231.450378 
	C491.000092,229.470428 489.754883,225.786926 488.753265,225.646088 
	C486.133759,225.277756 482.026978,225.497894 480.797882,227.166443 
	C477.552338,231.572327 474.662109,236.630020 473.192719,241.866608 
	C470.727264,250.653107 469.473511,259.779602 467.701050,268.807983 
	C461.762787,268.807983 455.983093,268.807983 450.019440,268.807983 
	C453.515747,249.553513 456.972595,230.516296 460.476349,211.220795 
	C465.320923,211.220795 470.421417,211.220795 475.994141,211.220795 
	C475.994141,212.851868 475.994141,214.445114 475.675598,216.579544 
	C475.316589,217.660385 475.276154,218.200043 475.235687,218.739716 
	C475.675262,218.424789 476.114838,218.109863 476.554413,217.794952 
z"/>
<path fill="#000000" opacity="1.000000" stroke="none" 
	d="
M306.001282,216.094193 
	C305.539276,219.228012 305.078583,221.918716 304.576477,224.851486 
	C300.705261,224.851486 296.749695,224.851486 292.130524,224.851486 
	C290.741577,232.994980 289.379608,241.033356 287.996796,249.068146 
	C287.141815,254.035782 289.418793,255.724899 294.101501,255.017075 
	C294.891968,254.897583 295.716003,255.000214 297.257690,255.000214 
	C296.467590,259.239410 295.895416,263.153870 294.928833,266.968384 
	C294.647705,268.077881 293.248077,269.711487 292.345856,269.721466 
	C287.460602,269.775452 282.452209,269.977356 277.712921,269.013672 
	C272.119141,267.876221 268.138580,261.380127 269.049652,256.088348 
	C270.819550,245.808243 272.740112,235.554062 274.637451,225.072754 
	C272.556854,225.072754 270.587128,225.072754 267.781281,225.072754 
	C268.548340,220.261673 269.265564,215.763214 270.005920,211.119690 
	C272.654816,211.119690 274.957275,211.119690 277.610016,211.119690 
	C277.752747,209.898346 277.840576,208.825104 278.008057,207.764450 
	C279.355347,199.233063 280.336517,198.329361 289.018707,196.976990 
	C291.860596,196.534332 294.657959,195.805893 298.068390,195.082413 
	C297.026001,200.285294 296.001160,205.400711 294.883148,210.981171 
	C299.035706,210.981171 302.964935,210.981171 307.247711,210.981171 
	C306.742188,212.877197 306.372406,214.264145 306.001282,216.094193 
z"/>
<path fill="#000000" opacity="1.000000" stroke="none" 
	d="
M306.998657,250.102478 
	C305.785065,242.317398 307.100098,235.301971 310.675842,228.906113 
	C318.931671,214.139038 332.294830,209.103775 348.439178,210.083023 
	C351.035736,210.240524 353.565979,211.492279 356.409088,212.320404 
	C354.795105,217.079086 353.363312,221.300598 351.847198,225.770630 
	C345.908478,223.509842 340.218170,223.895859 334.784027,226.771606 
	C329.546173,229.543518 327.432831,234.579575 325.635712,239.824020 
	C324.005859,244.580368 324.974396,249.185501 328.260193,252.445480 
	C331.130585,255.293365 335.052795,257.264893 339.731964,255.170807 
	C341.719025,254.281525 344.166443,254.420837 346.507294,254.077621 
	C347.001282,257.054688 347.584869,260.048584 347.972992,263.067627 
	C348.313690,265.718201 347.837677,267.317352 344.517426,268.329468 
	C336.573120,270.751129 328.607117,270.925049 320.893707,268.763641 
	C313.875244,266.796997 307.689240,259.805298 306.998657,250.102478 
z"/>
<path fill="#000000" opacity="1.000000" stroke="none" 
	d="
M437.724304,265.633545 
	C436.552216,267.006958 435.661774,268.807770 434.672211,268.863983 
	C429.556458,269.154724 424.415344,268.999023 418.955200,268.999023 
	C422.714600,249.426376 426.399597,230.241226 430.072479,211.119003 
	C436.280029,211.119003 441.908813,211.119003 447.927673,211.119003 
	C444.599915,228.291199 441.299896,245.276382 438.037903,262.268860 
	C437.852600,263.234009 437.978943,264.258972 437.724304,265.633545 
z"/>
<path fill="#000000" opacity="1.000000" stroke="none" 
	d="
M237.021179,250.163208 
	C238.692978,241.498093 240.384323,233.281021 241.983597,225.046066 
	C242.754639,221.075745 243.169724,217.025360 244.162689,213.117111 
	C244.397522,212.192764 246.283447,211.154419 247.456207,211.095810 
	C252.094635,210.863998 256.751495,211.000641 262.437714,211.000641 
	C258.781982,230.452301 255.195724,249.534241 251.572296,268.814056 
	C245.898544,268.814056 240.128464,268.814056 233.732483,268.814056 
	C234.853378,262.572723 235.928131,256.588318 237.021179,250.163208 
z"/>
<path fill="#000000" opacity="1.000000" stroke="none" 
	d="
M283.610901,289.000641 
	C286.125458,289.946899 287.641235,290.665588 290.457214,289.461487 
	C298.040222,286.219116 306.095428,292.155273 305.890015,300.496307 
	C305.789246,304.587036 305.480621,309.183228 303.564697,312.595428 
	C300.888702,317.361267 295.603241,320.136353 287.000000,316.295074 
	C287.000000,318.527466 287.000000,320.632233 287.000000,322.737030 
	C287.000000,324.698273 287.000000,326.659515 287.000000,328.441010 
	C286.342682,328.725555 286.060822,328.952820 285.777130,328.955170 
	C275.538544,329.038422 277.068878,329.812988 277.013458,320.260468 
	C276.953857,309.982574 277.000000,299.704071 277.000000,289.000031 
	C279.280823,289.000031 281.223083,289.000031 283.610901,289.000641 
M287.000763,306.017822 
	C288.688446,307.484314 290.575897,310.347931 292.024292,310.140869 
	C295.583282,309.632050 297.548553,306.390259 296.828857,302.883057 
	C296.351593,300.557312 294.575684,298.173492 292.706085,296.637177 
	C292.067352,296.112305 288.677826,297.649200 287.802643,299.037048 
	C286.803253,300.621857 287.206360,303.091064 287.000763,306.017822 
z"/>
<path fill="#000000" opacity="1.000000" stroke="none" 
	d="
M385.872589,277.002380 
	C386.898834,277.617920 387.922333,278.227905 387.926941,278.845398 
	C388.020203,291.436523 387.996918,304.028564 387.996918,317.527679 
	C384.762787,316.893402 382.013916,316.341064 379.258057,315.826050 
	C378.762573,315.733459 378.174072,315.633728 377.736816,315.808380 
	C367.158783,320.032990 361.343750,317.227783 359.186523,306.230530 
	C357.984680,300.103729 359.659027,294.294678 365.036255,290.635254 
	C369.335449,287.709442 374.219177,288.389313 379.005188,290.426697 
	C379.005188,286.232056 379.005188,281.930969 379.005188,277.000305 
	C381.233490,277.000305 383.314423,277.000305 385.872589,277.002380 
M370.029297,308.249268 
	C375.073639,311.097931 376.537445,310.745209 377.937866,305.619995 
	C378.514160,303.510895 378.506195,300.940277 377.853973,298.865692 
	C376.784210,295.462799 373.586823,295.049652 370.921570,297.594910 
	C367.800140,300.575836 368.696198,303.983612 370.029297,308.249268 
z"/>
<path fill="#000000" opacity="1.000000" stroke="none" 
	d="
M432.000000,302.216370 
	C432.000000,307.318420 432.000000,311.948029 432.000000,316.784363 
	C428.910889,316.784363 426.174377,316.784363 423.494690,316.784363 
	C422.988770,311.133636 422.706787,305.583496 421.836945,300.127075 
	C421.643829,298.915680 419.377594,298.034760 418.065918,297.001648 
	C417.043945,298.321289 415.235748,299.586792 415.140503,300.970215 
	C414.787811,306.093536 415.000092,311.255737 415.000092,316.700562 
	C411.745056,316.700562 408.669373,316.700562 405.293640,316.700562 
	C405.293640,303.745789 405.293640,290.669708 405.293640,277.295837 
	C408.264435,277.295837 411.336853,277.295837 414.778076,277.295837 
	C414.778076,281.608093 414.778076,286.038971 414.778076,290.602722 
	C426.393005,286.304077 431.756317,290.614777 432.000000,302.216370 
z"/>
<path fill="#000000" opacity="1.000000" stroke="none" 
	d="
M442.176453,290.967163 
	C447.435242,287.869873 452.902313,287.727600 457.452881,290.371338 
	C463.428894,293.843201 463.628052,300.226135 462.744629,306.806152 
	C457.345520,306.806152 451.927155,306.806152 445.943390,306.806152 
	C450.074036,313.233582 455.779297,309.882355 460.327942,309.991302 
	C463.760498,315.726013 460.265472,317.120544 455.961395,317.974243 
	C446.193146,319.911743 438.464050,315.382904 436.477570,305.754395 
	C435.323761,300.161713 437.575653,295.062012 442.176453,290.967163 
M446.975342,299.977020 
	C449.263947,299.977020 451.552551,299.977020 453.841156,299.977020 
	C454.096191,299.516113 454.351227,299.055176 454.606262,298.594269 
	C453.059540,297.410095 451.299408,295.095123 450.021637,295.336273 
	C448.522400,295.619202 447.442413,298.124054 446.975342,299.977020 
z"/>
<path fill="#000000" opacity="1.000000" stroke="none" 
	d="
M176.489365,299.194092 
	C178.866470,298.820862 180.863541,298.615906 182.860611,298.410950 
	C182.862122,297.771820 182.863617,297.132690 182.865128,296.493530 
	C180.611023,296.329376 178.339432,295.903473 176.106293,296.052795 
	C170.608643,296.420471 170.615753,296.526764 169.240173,291.631439 
	C174.045273,287.551666 179.832962,288.770050 185.186600,289.250153 
	C189.956329,289.677948 192.852798,294.281342 192.974457,299.941895 
	C193.092133,305.415771 192.999954,310.894135 192.999954,316.285767 
	C187.701828,316.871155 182.603333,317.538757 177.485001,317.971863 
	C171.908005,318.443817 169.092911,316.179779 167.882431,310.577301 
	C166.936646,306.199951 169.175385,301.972748 173.397903,300.237091 
	C174.273590,299.877136 175.204102,299.650513 176.489365,299.194092 
M178.045364,310.549774 
	C182.366333,311.523132 183.531723,308.969910 184.064117,305.047729 
	C180.290131,304.997009 176.589478,304.314453 178.045364,310.549774 
z"/>
<path fill="#000000" opacity="1.000000" stroke="none" 
	d="
M352.834167,306.999878 
	C348.069641,307.000000 343.786041,307.000000 338.950073,307.000000 
	C343.108521,312.900665 348.477448,310.173676 353.224426,309.916382 
	C355.718140,316.462463 354.807190,318.102112 347.867157,317.878815 
	C343.592773,317.741302 338.940491,317.261871 335.203308,315.421906 
	C329.934631,312.827881 328.101837,301.331909 331.166046,295.464203 
	C333.863861,290.298096 343.071106,287.150757 348.897675,289.402954 
	C354.234100,291.465698 358.182709,300.764893 355.855927,306.150421 
	C355.619629,306.697357 354.190643,306.729034 352.834167,306.999878 
M346.985413,298.825256 
	C345.561188,297.563751 344.114990,295.295563 342.718964,295.326019 
	C341.343262,295.356049 340.018372,297.714508 338.671173,299.051392 
	C338.950043,299.405029 339.228882,299.758667 339.507721,300.112305 
	C341.947540,299.960052 344.387390,299.807800 346.985413,298.825256 
z"/>
<path fill="#000000" opacity="1.000000" stroke="none" 
	d="
M272.509338,297.020020 
	C272.821228,300.300690 272.821228,303.292511 272.821228,306.670898 
	C267.545227,306.670898 262.133789,306.670898 255.989685,306.670898 
	C260.160065,313.082458 265.679626,309.990540 270.396851,309.957367 
	C271.902954,316.933838 271.516174,317.508881 264.656128,317.984375 
	C258.750092,318.393738 253.398849,317.467133 249.065842,312.688354 
	C245.866394,309.159729 246.075439,298.322601 248.566193,294.943512 
	C252.517624,289.582733 260.530151,286.790863 265.950470,289.731995 
	C268.537170,291.135529 270.145813,294.341583 272.509338,297.020020 
M259.597778,295.043915 
	C258.272705,296.339325 256.947601,297.634766 254.757034,299.776306 
	C258.978424,299.776306 261.413666,299.776306 263.848907,299.776306 
	C264.105957,299.378632 264.362976,298.980957 264.619995,298.583282 
	C263.213470,297.403595 261.806946,296.223877 259.597778,295.043915 
z"/>
<path fill="#000000" opacity="1.000000" stroke="none" 
	d="
M308.000092,292.053040 
	C309.007843,290.403839 310.015472,289.209869 311.023102,288.015869 
	C311.319305,288.196045 311.615479,288.376190 311.911682,288.556335 
	C311.911682,286.930847 311.911682,285.305328 311.911682,283.620087 
	C313.564697,283.077728 315.023651,282.492279 316.536438,282.134094 
	C317.922516,281.805939 319.366699,281.723145 320.949036,281.510223 
	C320.949036,283.757202 320.949036,286.070709 320.949036,288.739746 
	C322.845673,288.877747 324.603912,289.005707 326.682861,289.157013 
	C326.682861,291.179230 326.682861,293.259033 326.682861,295.768707 
	C325.165192,295.873749 323.413940,295.994965 321.637207,296.117981 
	C319.385101,306.363678 320.419647,309.286438 327.107239,310.495453 
	C325.972412,313.068176 329.562683,317.499329 323.607574,317.999786 
	C317.054291,318.550537 312.386200,315.442047 312.055176,309.938538 
	C311.787079,305.481079 312.000763,300.994629 312.000763,296.521057 
	C311.520447,296.682068 311.040131,296.843079 310.559814,297.004089 
	C309.706543,295.505463 308.853271,294.006866 308.000092,292.053040 
z"/>
<path fill="#000000" opacity="1.000000" stroke="none" 
	d="
M244.687241,314.285095 
	C243.547791,315.750427 242.214371,317.701324 240.718781,317.834778 
	C235.009537,318.344269 229.103195,318.449249 224.983017,313.391846 
	C220.727386,308.168182 221.146545,302.146790 223.334641,296.355804 
	C225.154251,291.539948 229.550629,289.722595 234.387070,289.017242 
	C235.199509,288.898743 236.044022,289.000977 236.873718,288.999878 
	C244.811035,288.989258 244.811035,288.989166 243.489868,296.853241 
	C235.463684,295.499023 232.547928,296.809082 232.001343,302.015198 
	C231.332962,308.381165 233.470932,309.925720 243.498596,310.042053 
	C243.790146,311.275818 244.104477,312.605957 244.687241,314.285095 
z"/>
<path fill="#000000" opacity="1.000000" stroke="none" 
	d="
M208.623871,317.861206 
	C200.067383,314.788574 195.154907,307.619446 197.180176,300.738556 
	C199.785904,291.885498 204.759827,287.262054 220.244583,289.429626 
	C219.759018,291.910828 219.279190,294.362671 218.799347,296.814545 
	C218.576004,296.394379 218.352661,295.974243 218.129303,295.554077 
	C215.047226,296.577393 211.556778,297.032776 209.040176,298.842468 
	C207.590210,299.885132 206.963821,303.240845 207.307587,305.335388 
	C207.818420,308.448059 210.412109,310.303650 213.757568,309.954956 
	C218.663208,309.443665 221.240585,310.882416 219.550339,317.132019 
	C216.345612,317.391418 212.690613,317.687225 208.623871,317.861206 
z"/>
<path fill="#000000" opacity="1.000000" stroke="none" 
	d="
M467.000000,293.161072 
	C467.000000,291.559021 467.000000,290.436951 467.000000,288.393066 
	C470.568115,289.170868 473.530548,289.816620 477.389648,290.657837 
	C478.785339,290.200470 481.539612,289.297913 484.771606,288.238800 
	C484.771606,291.914276 484.771606,294.678772 484.774597,297.444946 
	C477.000031,298.763550 477.000031,298.763550 477.000000,307.010559 
	C477.000000,310.144958 477.000000,313.279388 477.000000,316.705994 
	C473.744202,316.705994 470.676056,316.705994 467.000000,316.705994 
	C467.000000,309.111450 467.000000,301.376282 467.000000,293.161072 
z"/>
<path fill="#000000" opacity="1.000000" stroke="none" 
	d="
M253.439133,204.990967 
	C247.267227,201.982788 245.463531,197.895096 247.668839,192.844101 
	C249.979599,187.551636 255.962326,184.770935 261.113373,187.122406 
	C264.869812,188.837265 266.429077,192.579666 265.874817,196.458466 
	C265.209381,201.115021 261.957092,203.954010 257.331451,204.959579 
	C256.221588,205.200851 255.015091,204.997589 253.439133,204.990967 
z"/>
<path fill="#000000" opacity="1.000000" stroke="none" 
	d="
M445.679810,204.090393 
	C441.027283,205.925812 436.965027,205.670471 434.067719,201.893448 
	C431.056458,197.967941 432.063538,193.721619 434.629700,189.935059 
	C436.703766,186.874527 442.895233,185.731842 446.821411,187.358963 
	C450.891327,189.045654 452.751251,197.304626 449.748962,200.741745 
	C448.682404,201.962753 447.310394,202.916977 445.679810,204.090393 
z"/>
<path fill="#FFFFFF" opacity="1.000000" stroke="none" 
	d="
M50.998810,268.901184 
	C53.317600,256.432526 55.805710,244.430450 57.864506,232.355179 
	C58.633919,227.842407 54.587189,227.659821 50.937225,226.688370 
	C51.332150,224.367905 51.750454,221.910049 52.258316,218.925995 
	C57.055916,219.691681 61.914242,220.012772 66.467171,221.363388 
	C69.216194,222.178848 69.652229,221.333969 69.998138,219.235657 
	C70.443611,216.533279 70.887970,213.830719 71.434723,210.509079 
	C74.762001,211.661819 79.153282,211.882645 80.587494,214.055405 
	C81.950745,216.120636 80.222366,220.226608 79.816628,223.754730 
	C82.607147,224.296814 85.051132,224.771576 87.505203,225.248306 
	C89.236023,215.340530 89.236023,215.340530 99.951530,216.313873 
	C99.303513,218.912262 98.215256,221.472626 98.182396,224.046478 
	C98.160774,225.740585 99.204102,228.220840 100.557564,229.025833 
	C106.325317,232.456345 110.476151,237.413467 109.701622,243.866608 
	C108.860153,250.877365 104.573769,256.319763 96.543381,257.193878 
	C95.797546,257.275055 95.111351,257.904053 94.259758,258.350952 
	C95.850327,259.396179 97.276436,260.632446 98.925880,261.367798 
	C108.352211,265.570374 109.377892,281.482269 98.130211,287.891479 
	C95.294678,289.507233 91.749046,289.828583 88.663429,291.075562 
	C87.280212,291.634583 85.555428,292.798370 85.160858,294.056366 
	C84.300079,296.800751 84.192101,299.781250 83.673767,303.378479 
	C80.375465,302.346283 75.963531,302.259155 74.535919,300.151031 
	C73.138374,298.087341 74.781372,293.964539 75.131180,290.313690 
	C72.563896,289.761627 70.119881,289.236084 67.682800,288.712036 
	C65.311821,298.970947 65.311821,298.970947 55.050259,297.556305 
	C55.689384,294.772308 56.577873,292.015778 56.829979,289.202240 
	C56.918701,288.212067 55.605930,286.341644 54.663303,286.141052 
	C49.925392,285.132996 45.098206,284.544464 40.321640,283.811584 
	C40.645115,281.305695 40.948235,278.957489 41.333336,275.974213 
	C46.363556,276.847168 50.875053,276.088287 50.998810,268.901184 
M89.999992,270.521179 
	C89.062408,268.237793 88.689331,264.581818 87.084167,263.921661 
	C81.707588,261.710449 75.907898,260.498199 70.214569,259.136108 
	C69.683540,259.009064 68.248558,260.438110 68.099747,261.295105 
	C67.109795,266.996368 66.355888,272.738678 65.475670,278.809479 
	C70.306976,279.306183 74.376099,279.426361 78.318260,280.196472 
	C85.005775,281.502930 89.511063,278.270050 89.999992,270.521179 
M74.845695,250.967972 
	C78.246590,251.311966 81.647240,251.928604 85.048431,251.931595 
	C89.393509,251.935394 93.045082,250.373138 93.965210,245.513626 
	C94.910873,240.519333 92.972504,236.956345 87.888535,235.481033 
	C83.180710,234.114899 78.248260,233.522812 73.591652,232.624008 
	C72.696106,236.780014 71.747498,240.043671 71.352608,243.373016 
	C71.033340,246.064713 69.157700,249.690948 74.845695,250.967972 
z"/>
<path fill="#FFFFFF" opacity="1.000000" stroke="none" 
	d="
M496.545990,297.972900 
	C500.696655,293.975311 502.587646,294.432404 504.245636,300.835266 
	C501.112030,299.818146 498.676025,299.027435 496.545990,297.972900 
z"/>
<path fill="#FFFFFF" opacity="1.000000" stroke="none" 
	d="
M190.998474,241.167786 
	C193.267059,236.388275 195.194626,231.814987 197.908340,227.769012 
	C199.985321,224.672363 204.150833,223.285538 207.062180,225.291550 
	C209.431641,226.924164 211.827866,231.110245 211.395172,233.691849 
	C210.415192,239.539001 208.456757,245.556107 205.398468,250.595062 
	C203.578476,253.593781 199.091461,255.373276 195.435562,256.633911 
	C194.214340,257.055023 190.523483,254.366318 190.282303,252.752380 
	C189.744186,249.151154 190.667694,245.331512 190.998474,241.167786 
z"/>
<path fill="#FFFFFF" opacity="1.000000" stroke="none" 
	d="
M396.681519,235.736481 
	C395.696747,242.607666 394.337952,248.673904 389.170746,253.604843 
	C386.235718,256.405640 382.901215,256.765747 380.164459,255.698135 
	C377.938080,254.829620 375.776337,251.683716 375.171356,249.166702 
	C373.358185,241.622681 375.784058,234.696228 380.102264,228.475815 
	C382.661072,224.789871 386.607880,222.664948 390.804321,224.186844 
	C395.576080,225.917404 396.715240,230.650177 396.681519,235.736481 
z"/>
<path fill="#FFFFFF" opacity="1.000000" stroke="none" 
	d="
M476.406036,217.570160 
	C476.114838,218.109863 475.675262,218.424789 475.235687,218.739716 
	C475.276154,218.200043 475.316589,217.660385 475.637421,217.024078 
	C476.031097,217.066757 476.144379,217.206070 476.406036,217.570160 
z"/>
<path fill="#FFFFFF" opacity="1.000000" stroke="none" 
	d="
M287.000397,305.596893 
	C287.206360,303.091064 286.803253,300.621857 287.802643,299.037048 
	C288.677826,297.649200 292.067352,296.112305 292.706085,296.637177 
	C294.575684,298.173492 296.351593,300.557312 296.828857,302.883057 
	C297.548553,306.390259 295.583282,309.632050 292.024292,310.140869 
	C290.575897,310.347931 288.688446,307.484314 287.000397,305.596893 
z"/>
<path fill="#FFFFFF" opacity="1.000000" stroke="none" 
	d="
M369.968109,307.833801 
	C368.696198,303.983612 367.800140,300.575836 370.921570,297.594910 
	C373.586823,295.049652 376.784210,295.462799 377.853973,298.865692 
	C378.506195,300.940277 378.514160,303.510895 377.937866,305.619995 
	C376.537445,310.745209 375.073639,311.097931 369.968109,307.833801 
z"/>
<path fill="#FFFFFF" opacity="1.000000" stroke="none" 
	d="
M446.577972,299.821106 
	C447.442413,298.124054 448.522400,295.619202 450.021637,295.336273 
	C451.299408,295.095123 453.059540,297.410095 454.606262,298.594269 
	C454.351227,299.055176 454.096191,299.516113 453.841156,299.977020 
	C451.552551,299.977020 449.263947,299.977020 446.577972,299.821106 
z"/>
<path fill="#FFFFFF" opacity="1.000000" stroke="none" 
	d="
M177.762299,310.262634 
	C176.589478,304.314453 180.290131,304.997009 184.064117,305.047729 
	C183.531723,308.969910 182.366333,311.523132 177.762299,310.262634 
z"/>
<path fill="#FFFFFF" opacity="1.000000" stroke="none" 
	d="
M346.906311,299.240417 
	C344.387390,299.807800 341.947540,299.960052 339.507721,300.112305 
	C339.228882,299.758667 338.950043,299.405029 338.671173,299.051392 
	C340.018372,297.714508 341.343262,295.356049 342.718964,295.326019 
	C344.114990,295.295563 345.561188,297.563751 346.906311,299.240417 
z"/>
<path fill="#FFFFFF" opacity="1.000000" stroke="none" 
	d="
M259.999084,295.044067 
	C261.806946,296.223877 263.213470,297.403595 264.619995,298.583282 
	C264.362976,298.980957 264.105957,299.378632 263.848907,299.776306 
	C261.413666,299.776306 258.978424,299.776306 254.757034,299.776306 
	C256.947601,297.634766 258.272705,296.339325 259.999084,295.044067 
z"/>
<path fill="#000000" opacity="1.000000" stroke="none" 
	d="
M90.000000,270.949036 
	C89.511063,278.270050 85.005775,281.502930 78.318260,280.196472 
	C74.376099,279.426361 70.306976,279.306183 65.475670,278.809479 
	C66.355888,272.738678 67.109795,266.996368 68.099747,261.295105 
	C68.248558,260.438110 69.683540,259.009064 70.214569,259.136108 
	C75.907898,260.498199 81.707588,261.710449 87.084167,263.921661 
	C88.689331,264.581818 89.062408,268.237793 90.000000,270.949036 
z"/>
<path fill="#000000" opacity="1.000000" stroke="none" 
	d="
M74.446777,250.766602 
	C69.157700,249.690948 71.033340,246.064713 71.352608,243.373016 
	C71.747498,240.043671 72.696106,236.780014 73.591652,232.624008 
	C78.248260,233.522812 83.180710,234.114899 87.888535,235.481033 
	C92.972504,236.956345 94.910873,240.519333 93.965210,245.513626 
	C93.045082,250.373138 89.393509,251.935394 85.048431,251.931595 
	C81.647240,251.928604 78.246590,251.311966 74.446777,250.766602 
z"/>
</svg>